<?xml version="1.0" standalone="no"?>
<!DOCTYPE svg PUBLIC "-//W3C//DTD SVG 20010904//EN" "http://www.w3.org/TR/2001/REC-SVG-20010904/DTD/svg10.dtd">
<svg version="1.0" xmlns="http://www.w3.org/2000/svg" width="96px" height="25px" viewBox="0 0 719.000000 121.000000"
  preserveAspectRatio="xMidYMid meet">
  <metadata>
    Created by potrace 1.15, written by Peter Selinger 2001-2017
  </metadata>
  <g transform="translate(0.000000,121.000000) scale(0.100000,-0.100000)" fill="#000000" stroke="none">
    <path d="M5690 1172 c0 -52 -26 -137 -56 -182 -30 -45 -101 -86 -166 -95 l-48
-7 0 -69 0 -69 74 0 75 0 3 -282 c3 -281 3 -283 29 -333 33 -66 96 -108 184
-125 123 -23 239 0 310 62 59 52 77 103 79 225 l1 98 -67 3 -68 3 0 -56 c0
-126 -36 -185 -112 -185 -64 0 -68 21 -68 330 l0 260 140 0 140 0 0 70 0 70
-140 0 -140 0 0 160 0 160 -85 0 -85 0 0 -38z" />
    <path d="M2882 914 c-173 -46 -295 -166 -331 -325 -6 -24 -11 -80 -11 -124 -1
-247 130 -404 373 -450 290 -55 496 64 532 308 l7 47 -76 0 c-53 0 -78 -4 -80
-12 -2 -7 -9 -31 -15 -54 -27 -102 -89 -149 -196 -149 -89 0 -146 29 -192 97
-38 58 -53 122 -53 232 0 138 40 230 123 277 35 20 55 24 122 24 104 0 190
-41 122 -59 -67 -16 -104 -110 -70 -175 49 -94 228 -99 283 -9 23 38 27 118 8
180 -25 85 -121 161 -245 193 -72 19 -230 18 -301 -1z" />
    <path d="M4091 915 c-48 -15 -79 -40 -122 -99 l-29 -39 0 62 0 61 -227 -2
-228 -3 -3 -72 -3 -73 70 0 c106 0 101 13 101 -283 0 -306 3 -297 -101 -297
l-69 0 0 -70 0 -70 325 0 325 0 0 70 0 70 -79 0 c-118 0 -113 -11 -109 249 3
213 3 217 30 268 30 56 76 97 122 109 29 7 29 7 13 -17 -38 -53 -11 -150 48
-175 168 -70 295 136 165 266 -58 58 -137 74 -229 45z" />
    <path d="M6585 916 c-148 -36 -270 -145 -320 -286 -81 -230 18 -482 228 -581
126 -58 308 -62 450 -9 105 39 207 160 224 266 l6 35 -93 -3 -93 -3 -15 -44
c-31 -93 -124 -148 -234 -139 -127 11 -189 80 -214 236 l-7 42 337 0 336 0 0
43 c0 65 -26 169 -55 227 -57 112 -164 192 -293 219 -68 14 -193 13 -257 -3z
m236 -158 c47 -26 78 -82 81 -144 l3 -49 -188 -3 -189 -2 7 42 c10 60 48 131
82 153 59 39 137 40 204 3z" />
    <path d="M4685 904 c-38 -8 -93 -26 -121 -38 -165 -75 -191 -266 -41 -307 122
-33 218 89 142 179 -14 17 -25 32 -25 35 0 14 72 27 149 27 70 0 95 -4 131
-22 55 -28 83 -76 76 -131 -9 -78 -59 -104 -264 -142 -184 -33 -239 -54 -290
-109 -46 -50 -59 -102 -48 -189 14 -106 80 -172 194 -196 137 -28 275 3 390
90 28 22 52 35 52 29 0 -19 75 -93 107 -107 43 -17 177 -17 239 2 91 27 114
70 121 228 l6 107 -62 0 -61 0 0 -73 c0 -86 -13 -110 -55 -105 l-30 3 -5 265
c-5 252 -6 267 -28 313 -53 107 -150 148 -367 153 -101 3 -160 -1 -210 -12z
m305 -606 c-22 -77 -102 -138 -180 -138 -77 0 -124 44 -124 117 0 53 43 86
161 123 54 17 109 37 123 45 l25 13 3 -61 c2 -34 -2 -79 -8 -99z" />
    <path d="M1930 894 c-59 -16 -109 -45 -152 -88 l-27 -28 -3 59 -3 58 -222 3
-223 2 0 -75 0 -75 65 0 c108 0 105 8 105 -294 0 -300 5 -286 -101 -286 l-69
0 0 -70 0 -70 295 0 295 0 0 70 0 69 -62 3 -63 3 0 222 0 221 31 39 c66 82
173 108 245 60 60 -40 64 -58 64 -298 0 -246 -1 -249 -71 -249 l-44 0 0 -70 0
-70 275 0 275 0 0 70 0 70 -59 0 c-35 0 -63 5 -69 13 -6 7 -12 111 -14 272 -3
257 -3 261 -29 316 -31 65 -77 104 -145 125 -61 18 -222 17 -294 -2z" />
    <path d="M213 892 l-213 -2 0 -70 0 -70 65 0 c53 0 66 -3 75 -19 6 -12 10
-115 10 -264 0 -275 6 -309 67 -373 79 -81 227 -113 367 -80 75 18 120 41 178
94 l38 34 0 -56 0 -56 215 0 216 0 -3 67 -3 68 -62 3 c-34 2 -66 9 -72 16 -7
8 -12 131 -13 360 l-3 347 -220 0 -220 0 0 -68 0 -68 65 -3 c46 -2 69 -7 78
-19 8 -12 12 -70 12 -203 0 -180 -1 -188 -26 -238 -17 -35 -40 -60 -71 -81
-89 -59 -211 -34 -240 49 -8 24 -12 129 -12 332 -1 163 -4 298 -8 300 -5 2
-104 2 -220 0z" />
  </g>
</svg>