<svg width="108px" height="25px" viewBox="0 0 108 25" version="1.1" xmlns="http://www.w3.org/2000/svg" xmlns:xlink="http://www.w3.org/1999/xlink">
    <defs>
        <linearGradient x1="50%" y1="2.10666546%" x2="50%" y2="100%" id="logo-wired-linearGradient-1">
            <stop stop-color="#000000" offset="0%"></stop>
            <stop stop-color="#000000" offset="100%"></stop>
        </linearGradient>
        <polygon id="logo-wired-path-2" points="82.952183 21 103.690229 21 103.690229 0 82.952183 0"></polygon>
        <filter x="-19.3%" y="-28.6%" width="138.6%" height="138.1%" filterUnits="objectBoundingBox" id="logo-wired-filter-3">
            <feOffset dx="0" dy="-2" in="SourceAlpha" result="shadowOffsetOuter1"></feOffset>
            <feGaussianBlur stdDeviation="1" in="shadowOffsetOuter1" result="shadowBlurOuter1"></feGaussianBlur>
            <feColorMatrix values="0 0 0 0 1   0 0 0 0 1   0 0 0 0 1  0 0 0 1 0" type="matrix" in="shadowBlurOuter1"></feColorMatrix>
        </filter>
        <filter x="-10.8%" y="-20.2%" width="121.7%" height="121.4%" filterUnits="objectBoundingBox" id="logo-wired-filter-4">
            <feOffset dx="0" dy="0.5" in="SourceAlpha" result="shadowOffsetInner1"></feOffset>
            <feComposite in="shadowOffsetInner1" in2="SourceAlpha" operator="arithmetic" k2="-1" k3="1" result="shadowInnerInner1"></feComposite>
            <feColorMatrix values="0 0 0 0 0.82676977   0 0 0 0 0.82676977   0 0 0 0 0.82676977  0 0 0 1 0" type="matrix" in="shadowInnerInner1"></feColorMatrix>
        </filter>
        <polygon id="logo-wired-path-5" points="41.4760915 21 62.2141372 21 62.2141372 0 41.4760915 0"></polygon>
        <filter x="-19.3%" y="-28.6%" width="138.6%" height="138.1%" filterUnits="objectBoundingBox" id="logo-wired-filter-6">
            <feOffset dx="0" dy="-2" in="SourceAlpha" result="shadowOffsetOuter1"></feOffset>
            <feGaussianBlur stdDeviation="1" in="shadowOffsetOuter1" result="shadowBlurOuter1"></feGaussianBlur>
            <feColorMatrix values="0 0 0 0 1   0 0 0 0 1   0 0 0 0 1  0 0 0 1 0" type="matrix" in="shadowBlurOuter1"></feColorMatrix>
        </filter>
        <filter x="-10.8%" y="-20.2%" width="121.7%" height="121.4%" filterUnits="objectBoundingBox" id="logo-wired-filter-7">
            <feOffset dx="0" dy="0.5" in="SourceAlpha" result="shadowOffsetInner1"></feOffset>
            <feComposite in="shadowOffsetInner1" in2="SourceAlpha" operator="arithmetic" k2="-1" k3="1" result="shadowInnerInner1"></feComposite>
            <feColorMatrix values="0 0 0 0 0.82676977   0 0 0 0 0.82676977   0 0 0 0 0.82676977  0 0 0 1 0" type="matrix" in="shadowInnerInner1"></feColorMatrix>
        </filter>
        <polygon id="logo-wired-path-8" points="0 21 20.7380457 21 20.7380457 0 0 0"></polygon>
        <filter x="-19.3%" y="-28.6%" width="138.6%" height="138.1%" filterUnits="objectBoundingBox" id="logo-wired-filter-9">
            <feOffset dx="0" dy="-2" in="SourceAlpha" result="shadowOffsetOuter1"></feOffset>
            <feGaussianBlur stdDeviation="1" in="shadowOffsetOuter1" result="shadowBlurOuter1"></feGaussianBlur>
            <feColorMatrix values="0 0 0 0 1   0 0 0 0 1   0 0 0 0 1  0 0 0 1 0" type="matrix" in="shadowBlurOuter1"></feColorMatrix>
        </filter>
        <filter x="-10.8%" y="-20.2%" width="121.7%" height="121.4%" filterUnits="objectBoundingBox" id="logo-wired-filter-10">
            <feOffset dx="0" dy="0.5" in="SourceAlpha" result="shadowOffsetInner1"></feOffset>
            <feComposite in="shadowOffsetInner1" in2="SourceAlpha" operator="arithmetic" k2="-1" k3="1" result="shadowInnerInner1"></feComposite>
            <feColorMatrix values="0 0 0 0 0.82676977   0 0 0 0 0.82676977   0 0 0 0 0.82676977  0 0 0 1 0" type="matrix" in="shadowInnerInner1"></feColorMatrix>
        </filter>
        <path d="M35.9459459,5.97152946 L35.9459459,3.5 L26.2681913,3.5 L26.2681913,5.97152946 C26.2681913,5.97152946 29.462872,5.97152946 29.6370671,5.97152946 L29.6370671,15.7284705 C29.462872,15.7284705 26.2681913,15.7284705 26.2681913,15.7284705 L26.2681913,18.2 L35.9459459,18.2 L35.9459459,15.7284705 C35.9459459,15.7284705 32.4451374,15.7284705 32.2709423,15.7284705 L32.2709423,5.97152946 C32.4451374,5.97152946 35.9459459,5.97152946 35.9459459,5.97152946" id="logo-wired-path-11"></path>
        <filter x="-41.3%" y="-40.8%" width="182.7%" height="154.4%" filterUnits="objectBoundingBox" id="logo-wired-filter-12">
            <feOffset dx="0" dy="-2" in="SourceAlpha" result="shadowOffsetOuter1"></feOffset>
            <feGaussianBlur stdDeviation="1" in="shadowOffsetOuter1" result="shadowBlurOuter1"></feGaussianBlur>
            <feColorMatrix values="0 0 0 0 1   0 0 0 0 1   0 0 0 0 1  0 0 0 1 0" type="matrix" in="shadowBlurOuter1"></feColorMatrix>
        </filter>
        <filter x="-23.2%" y="-28.9%" width="146.5%" height="130.6%" filterUnits="objectBoundingBox" id="logo-wired-filter-13">
            <feOffset dx="0" dy="0.5" in="SourceAlpha" result="shadowOffsetInner1"></feOffset>
            <feComposite in="shadowOffsetInner1" in2="SourceAlpha" operator="arithmetic" k2="-1" k3="1" result="shadowInnerInner1"></feComposite>
            <feColorMatrix values="0 0 0 0 0.82676977   0 0 0 0 0.82676977   0 0 0 0 0.82676977  0 0 0 1 0" type="matrix" in="shadowInnerInner1"></feColorMatrix>
        </filter>
        <polyline id="logo-wired-path-14" points="66.3617464 3.5 66.3617464 5.917464 68.3813509 5.917464 68.3813509 15.782928 66.3617464 15.782928 66.3617464 18.2 78.8045738 18.2 78.8045738 13.430928 76.3288287 13.430928 76.3288287 15.782928 71.0521381 15.782928 71.0521381 11.797464 74.9607978 11.797464 74.9607978 9.38 71.0521381 9.38 71.0521381 5.917464 76.1333957 5.917464 76.1333957 8.269464 78.8045738 8.269464 78.8045738 3.5 66.3617464 3.5"></polyline>
        <filter x="-32.1%" y="-40.8%" width="164.3%" height="154.4%" filterUnits="objectBoundingBox" id="logo-wired-filter-15">
            <feOffset dx="0" dy="-2" in="SourceAlpha" result="shadowOffsetOuter1"></feOffset>
            <feGaussianBlur stdDeviation="1" in="shadowOffsetOuter1" result="shadowBlurOuter1"></feGaussianBlur>
            <feColorMatrix values="0 0 0 0 1   0 0 0 0 1   0 0 0 0 1  0 0 0 1 0" type="matrix" in="shadowBlurOuter1"></feColorMatrix>
        </filter>
        <filter x="-18.1%" y="-28.9%" width="136.2%" height="130.6%" filterUnits="objectBoundingBox" id="logo-wired-filter-16">
            <feOffset dx="0" dy="0.5" in="SourceAlpha" result="shadowOffsetInner1"></feOffset>
            <feComposite in="shadowOffsetInner1" in2="SourceAlpha" operator="arithmetic" k2="-1" k3="1" result="shadowInnerInner1"></feComposite>
            <feColorMatrix values="0 0 0 0 0.82676977   0 0 0 0 0.82676977   0 0 0 0 0.82676977  0 0 0 1 0" type="matrix" in="shadowInnerInner1"></feColorMatrix>
        </filter>
    </defs>
    <g id="logo-wired-Symbols" stroke="none" stroke-width="1">
        <g id="logo-wired-Logo-block" transform="translate(-546.000000, -84.000000)">
            <g id="logo-wired-Group-6">
                <g transform="translate(548.000000, 88.000000)">
                    <g id="logo-wired-Wired">
                        <g id="logo-wired-Fill-4">
                            <use fill="black" fill-opacity="1" filter="url(#logo-wired-filter-3)" xlink:href="#logo-wired-path-2"></use>
                            <use fill="url(#logo-wired-linearGradient-1)" fill-rule="evenodd" xlink:href="#logo-wired-path-2"></use>
                            <use fill="black" fill-opacity="1" filter="url(#logo-wired-filter-4)" xlink:href="#logo-wired-path-2"></use>
                        </g>
                        <g id="logo-wired-Fill-5">
                            <use fill="black" fill-opacity="1" filter="url(#logo-wired-filter-6)" xlink:href="#logo-wired-path-5"></use>
                            <use fill="url(#logo-wired-linearGradient-1)" fill-rule="evenodd" xlink:href="#logo-wired-path-5"></use>
                            <use fill="black" fill-opacity="1" filter="url(#logo-wired-filter-7)" xlink:href="#logo-wired-path-5"></use>
                        </g>
                        <g id="logo-wired-Fill-6">
                            <use fill="black" fill-opacity="1" filter="url(#logo-wired-filter-9)" xlink:href="#logo-wired-path-8"></use>
                            <use fill="url(#logo-wired-linearGradient-1)" fill-rule="evenodd" xlink:href="#logo-wired-path-8"></use>
                            <use fill="black" fill-opacity="1" filter="url(#logo-wired-filter-10)" xlink:href="#logo-wired-path-8"></use>
                        </g>
                        <g id="logo-wired-Fill-7">
                            <use fill="black" fill-opacity="1" filter="url(#logo-wired-filter-12)" xlink:href="#logo-wired-path-11"></use>
                            <use fill="url(#logo-wired-linearGradient-1)" fill-rule="evenodd" xlink:href="#logo-wired-path-11"></use>
                            <use fill="black" fill-opacity="1" filter="url(#logo-wired-filter-13)" xlink:href="#logo-wired-path-11"></use>
                        </g>
                        <path d="M53.0122203,10.0633879 C51.243042,10.0633879 49.0951603,10.1291359 49.0951603,10.1291359 L49.0951603,6.06063303 L53.0755271,6.06063303 C53.0755271,6.06063303 55.2234089,5.73268036 55.2234089,7.83228612 C55.2234089,9.66968722 54.7813986,10.0633879 53.0122203,10.0633879 Z M55.9186463,11.5070883 C55.9186463,11.5070883 58.0665281,11.310238 58.0665281,7.3074831 C58.0665281,3.30472822 54.5285506,3.50157857 54.5285506,3.50157857 L46.3149688,3.50157857 L46.3149688,18.2 L49.0951603,18.2 L49.0951603,12.49134 C49.0951603,12.49134 51.9382795,12.425592 53.5808442,12.425592 C55.2234089,12.425592 55.2234089,14.9188985 55.2234089,14.9188985 L55.2234089,18.134252 L58.0665281,18.134252 C58.0665281,18.134252 58.0665281,17.8062993 58.0665281,14.7220481 C58.0665281,11.637797 55.9186463,11.5070883 55.9186463,11.5070883 Z" id="logo-wired-Fill-8" fill="#FFFFFE"></path>
                        <g id="logo-wired-Fill-9">
                            <use fill="black" fill-opacity="1" filter="url(#logo-wired-filter-15)" xlink:href="#logo-wired-path-14"></use>
                            <use fill="url(#logo-wired-linearGradient-1)" fill-rule="evenodd" xlink:href="#logo-wired-path-14"></use>
                            <use fill="black" fill-opacity="1" filter="url(#logo-wired-filter-16)" xlink:href="#logo-wired-path-14"></use>
                        </g>
                        <path d="M96.6987847,12.7704515 C96.6987847,12.7704515 96.6358852,15.6147593 94.4885876,15.6147593 C92.3412899,15.6147593 90.0049149,15.6147593 90.0049149,15.6147593 L90.0049149,5.91913694 L94.2991313,5.91913694 C94.2991313,5.91913694 96.6987847,5.72483667 96.6987847,9.02173608 C96.6987847,12.3182477 96.6987847,12.7704515 96.6987847,12.7704515 Z M99.5406291,12.7060726 L99.5406291,8.63391119 C99.5406291,2.8165378 93.2256719,3.52742083 93.2256719,3.52742083 L87.0997921,3.52742083 L87.0997921,18.2 C87.0997921,18.2 89.436546,18.1356211 94.6147654,18.1356211 C99.7929849,18.1356211 99.5406291,12.7060726 99.5406291,12.7060726 Z" id="logo-wired-Fill-10" fill="#FFFFFE"></path>
                        <polyline id="logo-wired-Fill-11" fill="#FFFFFE" points="2.07380457 3.5 4.87122296 3.5 6.79845773 14.672 9.28480318 3.5 12.3310053 3.565464 14.8173508 14.868 16.6826693 3.5 19.3555094 3.5 16.4958018 18.134536 13.0146944 18.134536 10.7767597 7.485464 8.35233039 18.2 4.93351214 18.2 2.07380457 3.5"></polyline>
                    </g>
                </g>
            </g>
        </g>
    </g>
</svg>
